<svg xmlns="http://www.w3.org/2000/svg" viewBox="0 0 87.46 247.9"><defs><style>.cls-1{fill:#ffaf82;}.cls-2{fill:#f88968;}.cls-3{fill:#00784e;}.cls-4{fill:#050705;}.cls-5{fill:#de9d01;}.cls-6{fill:#bf8005;}.cls-7{fill:#fff;}.cls-8{fill:#2c2c2c;}.cls-9{fill:#009762;}.cls-10{fill:#e2e2e2;}.cls-11{fill:#32324c;}</style></defs><title>男青年</title><g id="图层_2" data-name="图层 2"><g id="图层_1-2" data-name="图层 1"><path class="cls-1" d="M73.94,114.22a23.63,23.63,0,0,1,4.31,1.37c1.93.89,4.25,2,5.43,2.58,1.42.68.19,1.94-1.83,1.11s-2.48-1-2.48-1,6.77,5.06,7.91,7c1,1.8-2.82-.81-6.14-2.79,0,0,5.68,6,5.33,7.39-.46,1.79-7.32-5.53-7.32-5.53s4.26,6.15,3.45,6.56-6-5.32-6-5.32,2.55,4.49,1.92,4.57c-1.25.15-8.5-8.09-8.74-13.11C69.75,117.06,72.71,114.22,73.94,114.22Z"/><path class="cls-2" d="M80.52,120.82a9.89,9.89,0,0,1-5.93,3.79S78.16,125.75,80.52,120.82Z"/><path class="cls-2" d="M76.49,120.85s-4.29-1.75-2.65-5.5C73.84,115.35,70.63,119,76.49,120.85Z"/><path class="cls-3" d="M59,86.36c-3.27-28.16-9.65-39.44-9.65-39.44C43.55,70.5,48.05,83.33,50,89.48s19.76,28.31,19.76,28.31a9.43,9.43,0,0,1,5-3.38s-5.65-10-7.65-13.69S59,86.36,59,86.36Z"/><path class="cls-4" d="M57.62,179.17l-4.53,54.62h-8c-1.85-21.29-4.82-39.94-1.47-54.62C40.28,162.61,37.77,125,37.77,125a120.47,120.47,0,0,1,15.83-5.33C56.84,138.09,57.62,179.17,57.62,179.17Z"/><path class="cls-5" d="M71.6,246.67H45.54a2.41,2.41,0,0,1-2.39-2.09,2.18,2.18,0,0,1,0-.51l1.06-13.69a15.13,15.13,0,0,1,2.6-.86,2.66,2.66,0,0,0,1.94-1.75,1.46,1.46,0,0,1,.05-.2c.6-2.64,4.39-3.47,5.1-.9.09.33.17.66.23,1a1.55,1.55,0,0,1,0,.23c.11.55.2,1.06.25,1.51a0,0,0,0,1,0,0,15.07,15.07,0,0,1,.13,1.86l1,1.29.48.63c.34.44.67.88,1,1.29.15.2.3.39.46.57.36.46.71.89,1.07,1.29.16.18.32.36.49.53a7.55,7.55,0,0,0,4.3,2.6c2.82.38,7.44.69,9.67,4.84a1.53,1.53,0,0,1,.11.27A1.6,1.6,0,0,1,71.6,246.67Z"/><path class="cls-6" d="M71.6,246.67H45.54a2.41,2.41,0,0,1-2.39-2.09h30A1.6,1.6,0,0,1,71.6,246.67Z"/><path class="cls-7" d="M56,233.19a4.52,4.52,0,0,1-2.16,1.47c-.21.09-.44.17-.69.25l-.22-.68.67-.24c1.42-.58,1.81-1.14,1.92-1.43Z"/><circle class="cls-7" cx="53.07" cy="234.57" r="0.81"/><path class="cls-7" d="M57.49,235.05a5.05,5.05,0,0,1-1.79,1.13c-.25.11-.52.21-.82.31l-.23-.69a7.25,7.25,0,0,0,.76-.28,4,4,0,0,0,1.62-1C57.18,234.68,57.33,234.87,57.49,235.05Z"/><path class="cls-7" d="M55.7,236.15a.81.81,0,1,1-.81-.81A.8.8,0,0,1,55.7,236.15Z"/><path class="cls-7" d="M59.05,236.87a5.39,5.39,0,0,1-1.73,1.07,8.85,8.85,0,0,1-.84.31l-.22-.68c.28-.09.54-.19.76-.28a4.49,4.49,0,0,0,1.54-.95C58.72,236.52,58.88,236.7,59.05,236.87Z"/><path class="cls-7" d="M57.32,237.91a.81.81,0,1,1-.81-.81A.81.81,0,0,1,57.32,237.91Z"/><path class="cls-7" d="M54.41,229.38a17.76,17.76,0,0,0-2.32.13V228.2a6.05,6.05,0,0,1,2.06-.33C54.27,228.42,54.36,228.93,54.41,229.38Z"/><path class="cls-8" d="M33.48,125s-.21,21.68-3.28,54.13c-2,17.67-4.24,39.85-6.72,54.62h-8l-1.13-54.62s-1.82-33.62,2.15-56.78Z"/><path class="cls-5" d="M30.47,244.85c-.23,4.59-14.59,3-16.88,1.63a3.25,3.25,0,0,1-1.33-2.8,22.17,22.17,0,0,1,1.1-6.51c.92-3.23.8-3.17,1.43-5.38,0,0-.16-3.6,4.54-5s6.43,7.58,7.24,9.3,3.59,3.74,3.89,7.62A10.18,10.18,0,0,1,30.47,244.85Z"/><path class="cls-7" d="M16.78,234.69l-.38-.57c.18-.12,4.33-2.78,7.94-1.19l-.27.63C20.79,232.12,16.82,234.67,16.78,234.69Z"/><path class="cls-7" d="M17.19,238.69l-.38-.58c.18-.11,4.33-2.77,7.94-1.19l-.28.63C21.2,236.11,17.23,238.66,17.19,238.69Z"/><path class="cls-7" d="M17,236.69l-.37-.58c.17-.11,4.32-2.77,7.94-1.19l-.28.63C21,234.12,17,236.67,17,236.69Z"/><path class="cls-7" d="M17.32,234.51a.77.77,0,0,1-.77.78.78.78,0,1,1,0-1.55A.77.77,0,0,1,17.32,234.51Z"/><path class="cls-7" d="M17.37,236.41a.78.78,0,0,1-.78.77.78.78,0,0,1,0-1.55A.78.78,0,0,1,17.37,236.41Z"/><path class="cls-7" d="M17.78,238.3a.77.77,0,0,1-.78.77.77.77,0,1,1,0-1.54A.77.77,0,0,1,17.78,238.3Z"/><path class="cls-7" d="M25.39,237.18a.78.78,0,0,1-.78.78.77.77,0,0,1-.77-.78.76.76,0,0,1,.77-.77A.77.77,0,0,1,25.39,237.18Z"/><path class="cls-7" d="M25.18,235.12a.77.77,0,0,1-.77.77.78.78,0,1,1,.77-.77Z"/><path class="cls-7" d="M25,233.05a.78.78,0,1,1-.78-.78A.78.78,0,0,1,25,233.05Z"/><path class="cls-6" d="M30.47,244.85c-.23,4.59-14.59,3-16.88,1.63a3.25,3.25,0,0,1-1.33-2.8,16.9,16.9,0,0,0,8.14,2c4.87.09,8.38-.9,10.06-1.94A10.18,10.18,0,0,1,30.47,244.85Z"/><path class="cls-7" d="M21.36,228.24a7.69,7.69,0,0,0-4,.8l.21,1.45a16.17,16.17,0,0,1,4.33-.65A3.44,3.44,0,0,0,21.36,228.24Z"/><path class="cls-8" d="M17.64,116.7s-2.7,9.56-2.67,18.08c0,0,13.22,5.79,30.05-.61A13.55,13.55,0,0,0,52.93,117a1.83,1.83,0,0,1-.08-.25S31.33,115.82,17.64,116.7Z"/><path class="cls-9" d="M57.62,122.22A69.92,69.92,0,0,1,49,125.58c-.8.25-1.6.48-2.41.7a53.11,53.11,0,0,1-13.07,1.9,39.56,39.56,0,0,1-21.65-5.79l4.67-27.75L8.82,49.52l11.56-4,.62-.22L22.14,45l.48-.16,1-.33,2-.71,12.23,1.63.74.1,1.25.17.7.1,8.74,1.16Z"/><path class="cls-7" d="M46.6,126.28a53.11,53.11,0,0,1-13.07,1.9c.2-1.24.36-2.53.48-3.86.07-.66.12-1.33.17-2,.09-1.34.15-2.7.19-4.1,0-.67,0-1.34,0-2,0-1.34,0-2.7,0-4.08,0-.67,0-1.33-.07-2-.06-1.35-.14-2.7-.23-4.08l-.15-2c-.11-1.34-.23-2.7-.37-4.06-.07-.66-.14-1.33-.22-2-.15-1.35-.31-2.71-.49-4.06-.08-.66-.17-1.33-.26-2-.19-1.35-.38-2.71-.59-4-.1-.67-.2-1.33-.31-2-.22-1.36-.44-2.71-.68-4.05-.11-.67-.23-1.33-.35-2-.24-1.36-.5-2.72-.75-4l-.39-2c-.27-1.38-.55-2.73-.83-4.07l-.42-2c-.3-1.39-.6-2.75-.9-4.07q-.22-1-.45-2l-1-4.08-.49-2c-.36-1.45-.7-2.82-1-4.1-.18-.7-.36-1.37-.53-2-.46-1.78-.89-3.34-1.25-4.64l1-.33,2-.71,12.23,1.63.74.1c.22,1.16.43,2.31.64,3.47.12.66.24,1.31.35,2,.24,1.32.46,2.64.68,4,.11.65.22,1.31.32,2,.22,1.32.42,2.64.62,4l.3,2c.19,1.33.38,2.64.56,4l.27,2c.18,1.33.35,2.65.52,4,.08.67.16,1.33.25,2,.16,1.33.31,2.65.46,4,.08.67.16,1.33.23,2,.15,1.33.29,2.66.42,4l.21,2c.13,1.34.26,2.67.38,4l.18,2c.12,1.35.23,2.68.34,4,0,.68.11,1.35.16,2,.1,1.37.2,2.7.29,4,0,.69.09,1.36.13,2,.09,1.38.17,2.71.24,4,0,.69.08,1.36.11,2q.11,2.12.18,4c0,.7,0,1.38.08,2,0,1.45.08,2.8.1,4,0,.72,0,1.4,0,2C46.66,124.11,46.64,125.3,46.6,126.28Z"/><path class="cls-10" d="M39.61,50.93A84,84,0,0,1,29,51.55c-1.47,0-3,0-4.57-.09-.18-.7-.36-1.37-.53-2A93.34,93.34,0,0,0,39.26,49C39.38,49.62,39.5,50.27,39.61,50.93Z"/><path class="cls-10" d="M40.61,56.86a83.61,83.61,0,0,1-11.77.75c-.95,0-1.93,0-2.92,0l-.49-2a89.65,89.65,0,0,0,14.86-.67C40.4,55.54,40.51,56.2,40.61,56.86Z"/><path class="cls-10" d="M41.53,62.79a83.81,83.81,0,0,1-12.84.88H27.33q-.22-1-.45-2a85.46,85.46,0,0,0,14.35-.83Z"/><path class="cls-10" d="M42.36,68.73a83.53,83.53,0,0,1-13.71,1l-.42-2a82.84,82.84,0,0,0,13.86-1Z"/><path class="cls-10" d="M43.13,74.68A84.22,84.22,0,0,1,29.87,75.8l-.39-2a81.78,81.78,0,0,0,13.4-1.11C43,73.36,43,74,43.13,74.68Z"/><path class="cls-10" d="M43.82,80.64A82,82,0,0,1,31,81.85c-.11-.67-.23-1.33-.35-2a79.24,79.24,0,0,0,13-1.21C43.67,79.31,43.75,80,43.82,80.64Z"/><path class="cls-10" d="M44.45,86.6A80.67,80.67,0,0,1,32,87.9c-.1-.67-.2-1.33-.31-2a77.68,77.68,0,0,0,12.59-1.29Z"/><path class="cls-10" d="M45,92.58a79.08,79.08,0,0,1-12.2,1.36c-.08-.66-.17-1.33-.26-2a78,78,0,0,0,12.28-1.37Z"/><path class="cls-10" d="M45.51,98.57a78.79,78.79,0,0,1-12,1.42c-.07-.66-.14-1.33-.22-2a77.33,77.33,0,0,0,12.05-1.44C45.4,97.24,45.46,97.91,45.51,98.57Z"/><path class="cls-10" d="M45.93,104.58A79.81,79.81,0,0,1,34,106l-.15-2a76.69,76.69,0,0,0,11.91-1.49C45.84,103.25,45.89,103.92,45.93,104.58Z"/><path class="cls-10" d="M46.28,110.6a81.05,81.05,0,0,1-11.94,1.52c0-.67,0-1.33-.07-2a78.49,78.49,0,0,0,11.9-1.54C46.21,109.27,46.25,109.94,46.28,110.6Z"/><path class="cls-10" d="M46.54,116.65a83.94,83.94,0,0,1-12.17,1.56c0-.67,0-1.34,0-2a78.82,78.82,0,0,0,12.07-1.58C46.49,115.32,46.51,116,46.54,116.65Z"/><path class="cls-10" d="M46.65,122.73A86.45,86.45,0,0,1,34,124.32c.07-.66.12-1.33.17-2a83.21,83.21,0,0,0,12.46-1.62C46.65,121.41,46.65,122.09,46.65,122.73Z"/><path class="cls-11" d="M50.92,10.88s3.1,2,2,7.59-3.26,6.14-3.26,6.14S46.4,12.32,50.92,10.88Z"/><path class="cls-1" d="M36.68,36.8l-.4,7L36.11,47c-4,3-10.62-1.12-10.62-1.12l-.7-10.4c1.87-1.26,6.69-.21,9.58.59C35.74,36.48,36.68,36.8,36.68,36.8Z"/><path class="cls-2" d="M36.68,36.8l-.4,7c-4.74-1.1-8.71-7.68-8.71-7.68l6.8,0C35.74,36.48,36.68,36.8,36.68,36.8Z"/><path class="cls-11" d="M50.3,13.7S57.86,10.18,55.65,4,44.37.61,36.23.92C23.12,1.42,19,8.24,19.35,15.34S19.61,32,22.82,35.51s5.42-1.46,7.08-5.91S41.84,11.57,50.3,13.7Z"/><path class="cls-1" d="M51,19.75c0,.24,0,.48,0,.73A110.25,110.25,0,0,1,49.32,34.6a8.33,8.33,0,0,1-9.85,6.76C33.93,40.24,27.1,38.54,24,36.49a3.33,3.33,0,0,1-1.67-2,45.36,45.36,0,0,1-.51-6.11c-.22-7.15.3-16.07.3-16.07,6.66-8.27,25.22-5,28,1A16.07,16.07,0,0,1,51,19.75Z"/><path class="cls-11" d="M40,23.74c0,.93-.41,1.68-.92,1.68s-.93-.75-.93-1.68.42-1.68.93-1.68S40,22.81,40,23.74Z"/><path class="cls-11" d="M49.45,23.74c0,.93-.42,1.68-.93,1.68s-.92-.75-.92-1.68.41-1.68.92-1.68S49.45,22.81,49.45,23.74Z"/><path class="cls-11" d="M21.78,21.87s3-1.93,5.46,1.51h1.94s-.11-4,.83-6.15,4.67-2.11,5.22-4.66c0,0,8.78,3.49,15.07,1.13S37.73.86,28.63,6,20.37,15.08,21.78,21.87Z"/><path class="cls-11" d="M35.05,21.41a4.68,4.68,0,0,1,2.6-2.29,4.38,4.38,0,0,1,3.28.3.56.56,0,0,1,.25.69h0a.57.57,0,0,1-.77.32A4.75,4.75,0,0,0,35.05,21.41Z"/><path class="cls-11" d="M51,19.75c0,.24,0,.48,0,.73a4.54,4.54,0,0,0-4-.05.69.69,0,0,1-.24.05.58.58,0,0,1-.54-.37.57.57,0,0,1,.26-.69,4.36,4.36,0,0,1,3.28-.3A3.45,3.45,0,0,1,51,19.75Z"/><path class="cls-11" d="M24,36.49a3.33,3.33,0,0,1-1.67-2,45.36,45.36,0,0,1-.51-6.11l4.9,3.36S26.78,35.27,24,36.49Z"/><path class="cls-1" d="M27.24,23.38s-3-3.6-5.46-1.51C19,24.17,21.14,32,26.71,31.79Z"/><path class="cls-2" d="M26.85,30.09a.49.49,0,0,1-.49-.43c-.45-3.94-2.79-4.55-2.89-4.57a.5.5,0,0,1-.37-.59.49.49,0,0,1,.59-.37c.12,0,3.11.75,3.65,5.42a.49.49,0,0,1-.44.54Z"/><path class="cls-2" d="M23.72,27.59a.5.5,0,0,1-.33-.12.49.49,0,0,1,0-.69A2.8,2.8,0,0,1,26,26a.49.49,0,0,1-.21,1,1.82,1.82,0,0,0-1.68.45A.46.46,0,0,1,23.72,27.59Z"/><path class="cls-2" d="M44.57,33.63a8.8,8.8,0,0,1-6.81-3,.5.5,0,0,1,.05-.69.48.48,0,0,1,.69.05c3.21,3.68,8.24,2.37,8.29,2.36a.49.49,0,0,1,.26,1A10.79,10.79,0,0,1,44.57,33.63Z"/><path class="cls-2" d="M42.48,36a4.83,4.83,0,0,1-3.82-1.72.49.49,0,0,1,.79-.58A4.05,4.05,0,0,0,43.36,35a.49.49,0,0,1,.16,1A6.45,6.45,0,0,1,42.48,36Z"/><path class="cls-2" d="M44.44,29.15a.51.51,0,0,1-.39-.19.5.5,0,0,1,.09-.69l1.31-1L44.32,27a.49.49,0,0,1-.36-.4l-.5-3.12a.49.49,0,0,1,1-.16l.45,2.81,1.8.46A.51.51,0,0,1,47,27a.51.51,0,0,1-.18.49l-2.11,1.61A.49.49,0,0,1,44.44,29.15Z"/><path class="cls-1" d="M17.18,124.94s2.17.69,2.83,2c0,0,0,8.06-4.06,11.58,0,0-2-4.85-4.06-9.49Z"/><path class="cls-9" d="M8.82,49.52S.72,74.87,0,87.9c0,0,0,24.37,11.89,41.09l5.29-4.05s-6.67-24.25-6.67-33.71c0,0,6.75-17.56,7.86-24.48C18.37,66.75,13.83,49.52,8.82,49.52Z"/></g></g></svg>